<?xml version="1.0" encoding="UTF-8"?>
<mxfile host="Electron" modified="2024-01-07T12:00:00.000Z" agent="5.0" version="14.6.13" type="device">
  <diagram id="system-design" name="System Design">
    <mxGraphModel dx="1422" dy="798" grid="1" gridSize="10" guides="1" tooltips="1" connect="1" arrows="1" fold="1" page="1" pageScale="1" pageWidth="1100" pageHeight="850">
      <root>
        <mxCell id="0"/>
        <mxCell id="1" parent="0"/>
        
        <!-- Client Side -->
        <mxCell id="2" value="Client Device" style="swimlane;fontStyle=1;align=center;verticalAlign=top;childLayout=stackLayout;horizontal=1;startSize=26;horizontalStack=0;resizeParent=1;resizeParentMax=0;resizeLast=0;collapsible=1;marginBottom=0;fillColor=#dae8fc;strokeColor=#6c8ebf;" vertex="1" parent="1">
          <mxGeometry x="40" y="40" width="200" height="280" as="geometry"/>
        </mxCell>
        
        <!-- Client Components -->
        <mxCell id="3" value="AR Application&#xa;- User Interface&#xa;- Camera Interface&#xa;- Sensor Management&#xa;- Local Storage&#xa;- Marker Detection&#xa;- 3D Rendering&#xa;- Scene Management&#xa;- Asset Management&#xa;- Offline Cache&#xa;- Error Handling&#xa;- Performance Monitoring" style="text;strokeColor=none;fillColor=none;align=left;verticalAlign=top;spacingLeft=4;spacingRight=4;overflow=hidden;rotatable=0;points=[[0,0.5],[1,0.5]];portConstraint=eastwest;" vertex="1" parent="2">
          <mxGeometry y="26" width="200" height="254" as="geometry"/>
        </mxCell>
        
        <!-- Load Balancer -->
        <mxCell id="4" value="Load Balancer" style="rounded=1;whiteSpace=wrap;html=1;fillColor=#f8cecc;strokeColor=#b85450;" vertex="1" parent="1">
          <mxGeometry x="320" y="120" width="120" height="60" as="geometry"/>
        </mxCell>
        
        <!-- API Gateway -->
        <mxCell id="5" value="API Gateway" style="rounded=1;whiteSpace=wrap;html=1;fillColor=#fff2cc;strokeColor=#d6b656;" vertex="1" parent="1">
          <mxGeometry x="520" y="120" width="120" height="60" as="geometry"/>
        </mxCell>
        
        <!-- Application Servers -->
        <mxCell id="6" value="Application Servers" style="swimlane;fontStyle=1;align=center;verticalAlign=top;childLayout=stackLayout;horizontal=1;startSize=26;horizontalStack=0;resizeParent=1;resizeParentMax=0;resizeLast=0;collapsible=1;marginBottom=0;fillColor=#d5e8d4;strokeColor=#82b366;" vertex="1" parent="1">
          <mxGeometry x="320" y="240" width="320" height="200" as="geometry"/>
        </mxCell>
        
        <!-- Server Components -->
        <mxCell id="7" value="- Authentication Service&#xa;- User Management&#xa;- Content Management&#xa;- Asset Processing&#xa;- Analytics Service&#xa;- Caching Layer&#xa;- Logging Service&#xa;- Monitoring Service&#xa;- Background Jobs&#xa;- WebSocket Service" style="text;strokeColor=none;fillColor=none;align=left;verticalAlign=top;spacingLeft=4;spacingRight=4;overflow=hidden;rotatable=0;points=[[0,0.5],[1,0.5]];portConstraint=eastwest;" vertex="1" parent="6">
          <mxGeometry y="26" width="320" height="174" as="geometry"/>
        </mxCell>
        
        <!-- Database Layer -->
        <mxCell id="8" value="Database Layer" style="swimlane;fontStyle=1;align=center;verticalAlign=top;childLayout=stackLayout;horizontal=1;startSize=26;horizontalStack=0;resizeParent=1;resizeParentMax=0;resizeLast=0;collapsible=1;marginBottom=0;fillColor=#e1d5e7;strokeColor=#9673a6;" vertex="1" parent="1">
          <mxGeometry x="320" y="480" width="320" height="120" as="geometry"/>
        </mxCell>
        
        <!-- Database Components -->
        <mxCell id="9" value="Primary Database (PostgreSQL)&#xa;- User Data&#xa;- Content Metadata&#xa;- Analytics Data&#xa;- System Configuration" style="text;strokeColor=none;fillColor=none;align=left;verticalAlign=top;spacingLeft=4;spacingRight=4;overflow=hidden;rotatable=0;points=[[0,0.5],[1,0.5]];portConstraint=eastwest;" vertex="1" parent="8">
          <mxGeometry y="26" width="320" height="94" as="geometry"/>
        </mxCell>
        
        <!-- Storage Layer -->
        <mxCell id="10" value="Storage Layer" style="swimlane;fontStyle=1;align=center;verticalAlign=top;childLayout=stackLayout;horizontal=1;startSize=26;horizontalStack=0;resizeParent=1;resizeParentMax=0;resizeLast=0;collapsible=1;marginBottom=0;fillColor=#ffe6cc;strokeColor=#d79b00;" vertex="1" parent="1">
          <mxGeometry x="720" y="240" width="240" height="120" as="geometry"/>
        </mxCell>
        
        <!-- Storage Components -->
        <mxCell id="11" value="Object Storage (S3/Blob Storage)&#xa;- 3D Models&#xa;- Textures&#xa;- Marker Images&#xa;- User Generated Content" style="text;strokeColor=none;fillColor=none;align=left;verticalAlign=top;spacingLeft=4;spacingRight=4;overflow=hidden;rotatable=0;points=[[0,0.5],[1,0.5]];portConstraint=eastwest;" vertex="1" parent="10">
          <mxGeometry y="26" width="240" height="94" as="geometry"/>
        </mxCell>
        
        <!-- Cache Layer -->
        <mxCell id="12" value="Cache Layer" style="swimlane;fontStyle=1;align=center;verticalAlign=top;childLayout=stackLayout;horizontal=1;startSize=26;horizontalStack=0;resizeParent=1;resizeParentMax=0;resizeLast=0;collapsible=1;marginBottom=0;fillColor=#f5f5f5;strokeColor=#666666;fontColor=#333333;" vertex="1" parent="1">
          <mxGeometry x="720" y="400" width="240" height="120" as="geometry"/>
        </mxCell>
        
        <!-- Cache Components -->
        <mxCell id="13" value="Redis Cluster&#xa;- Session Data&#xa;- Frequently Accessed Content&#xa;- Real-time Data&#xa;- API Response Cache" style="text;strokeColor=none;fillColor=none;align=left;verticalAlign=top;spacingLeft=4;spacingRight=4;overflow=hidden;rotatable=0;points=[[0,0.5],[1,0.5]];portConstraint=eastwest;" vertex="1" parent="12">
          <mxGeometry y="26" width="240" height="94" as="geometry"/>
        </mxCell>
        
        <!-- Connections -->
        <mxCell id="14" value="" style="endArrow=classic;html=1;rounded=0;exitX=1;exitY=0.5;exitDx=0;exitDy=0;entryX=0;entryY=0.5;entryDx=0;entryDy=0;" edge="1" parent="1" source="3" target="4">
          <mxGeometry width="50" height="50" relative="1" as="geometry"/>
        </mxCell>
        
        <mxCell id="15" value="" style="endArrow=classic;html=1;rounded=0;exitX=1;exitY=0.5;exitDx=0;exitDy=0;entryX=0;entryY=0.5;entryDx=0;entryDy=0;" edge="1" parent="1" source="4" target="5">
          <mxGeometry width="50" height="50" relative="1" as="geometry"/>
        </mxCell>
        
        <mxCell id="16" value="" style="endArrow=classic;html=1;rounded=0;exitX=0.5;exitY=1;exitDx=0;exitDy=0;entryX=0.5;entryY=0;entryDx=0;entryDy=0;" edge="1" parent="1" source="5" target="6">
          <mxGeometry width="50" height="50" relative="1" as="geometry"/>
        </mxCell>
        
        <mxCell id="17" value="" style="endArrow=classic;html=1;rounded=0;exitX=0.5;exitY=1;exitDx=0;exitDy=0;entryX=0.5;entryY=0;entryDx=0;entryDy=0;" edge="1" parent="1" source="7" target="8">
          <mxGeometry width="50" height="50" relative="1" as="geometry"/>
        </mxCell>
        
        <mxCell id="18" value="" style="endArrow=classic;html=1;rounded=0;exitX=1;exitY=0.5;exitDx=0;exitDy=0;entryX=0;entryY=0.5;entryDx=0;entryDy=0;" edge="1" parent="1" source="7" target="11">
          <mxGeometry width="50" height="50" relative="1" as="geometry"/>
        </mxCell>
        
        <mxCell id="19" value="" style="endArrow=classic;html=1;rounded=0;exitX=1;exitY=0.75;exitDx=0;exitDy=0;entryX=0;entryY=0.5;entryDx=0;entryDy=0;" edge="1" parent="1" source="7" target="13">
          <mxGeometry width="50" height="50" relative="1" as="geometry"/>
        </mxCell>
        
        <!-- Labels -->
        <mxCell id="20" value="HTTPS" style="text;html=1;strokeColor=none;fillColor=none;align=center;verticalAlign=middle;whiteSpace=wrap;rounded=0;" vertex="1" parent="1">
          <mxGeometry x="250" y="130" width="60" height="20" as="geometry"/>
        </mxCell>
        
        <mxCell id="21" value="REST/WebSocket" style="text;html=1;strokeColor=none;fillColor=none;align=center;verticalAlign=middle;whiteSpace=wrap;rounded=0;" vertex="1" parent="1">
          <mxGeometry x="440" y="130" width="80" height="20" as="geometry"/>
        </mxCell>
        
        <!-- Monitoring & Analytics -->
        <mxCell id="22" value="Monitoring &amp; Analytics" style="swimlane;fontStyle=1;align=center;verticalAlign=top;childLayout=stackLayout;horizontal=1;startSize=26;horizontalStack=0;resizeParent=1;resizeParentMax=0;resizeLast=0;collapsible=1;marginBottom=0;fillColor=#f8cecc;strokeColor=#b85450;" vertex="1" parent="1">
          <mxGeometry x="720" y="560" width="240" height="120" as="geometry"/>
        </mxCell>
        
        <!-- Monitoring Components -->
        <mxCell id="23" value="- Performance Metrics&#xa;- Error Tracking&#xa;- User Analytics&#xa;- System Health Monitoring&#xa;- Usage Statistics" style="text;strokeColor=none;fillColor=none;align=left;verticalAlign=top;spacingLeft=4;spacingRight=4;overflow=hidden;rotatable=0;points=[[0,0.5],[1,0.5]];portConstraint=eastwest;" vertex="1" parent="22">
          <mxGeometry y="26" width="240" height="94" as="geometry"/>
        </mxCell>
        
        <mxCell id="24" value="" style="endArrow=classic;html=1;rounded=0;exitX=1;exitY=0.75;exitDx=0;exitDy=0;entryX=0;entryY=0.5;entryDx=0;entryDy=0;" edge="1" parent="1" source="7" target="23">
          <mxGeometry width="50" height="50" relative="1" as="geometry"/>
        </mxCell>
      </root>
    </mxGraphModel>
  </diagram>
</mxfile>
